<?xml version="1.0" encoding="utf-8"?>
<!-- Generator: Adobe Illustrator 22.0.1, SVG Export Plug-In . SVG Version: 6.00 Build 0)  -->
<svg version="1.1" id="Capa_1" xmlns="http://www.w3.org/2000/svg" xmlns:xlink="http://www.w3.org/1999/xlink" x="0px" y="0px"
	 viewBox="0 0 2272 1872" style="enable-background:new 0 0 2272 1872;" xml:space="preserve">
<style type="text/css">
	.st0{fill:#1F6664;}
	.st1{fill:#20E5B1;}
	.st2{fill:#FFFFFF;}
	.st3{fill:#D7FFF3;}
	.st4{fill:url(#SVGID_1_);}
	.st5{fill:#22BA9D;}
	.st6{fill:#FFC388;}
	.st7{fill:#25A08E;}
	.st8{fill:#15AF95;}
	.st9{opacity:0.2;}
	.st10{fill:#0F4C49;}
	.st11{opacity:0.1;}
	.st12{fill:#FFFDFF;}
	.st13{fill:#F49F51;}
</style>
<g>
	<g>
		<path class="st0" d="M1713,414.3c-2.6-15.4-11.5-43.5-24.1-74.7c-12.6-31.2-25.7-57.6-34.5-70.5c3.2-3.4,4.3-8.5,2.4-13.1
			c-2.6-6.4-9.8-9.5-16.2-6.9c-6.4,2.6-9.5,9.8-6.9,16.2c1.9,4.6,6.2,7.5,10.8,7.8c2.6,15.4,11.5,43.5,24.1,74.7
			c12.6,31.2,25.7,57.6,34.5,70.5c-3.2,3.4-4.3,8.5-2.4,13.1c2.6,6.4,9.8,9.5,16.2,6.9c6.4-2.6,9.5-9.8,6.9-16.2
			C1722,417.4,1717.7,414.5,1713,414.3z"/>
		<path class="st0" d="M1608.2,377.9c15.4-2.6,43.5-11.5,74.7-24.1c31.2-12.6,57.6-25.7,70.5-34.5c3.4,3.2,8.5,4.3,13.1,2.4
			c6.4-2.6,9.5-9.8,6.9-16.2c-2.6-6.4-9.8-9.5-16.2-6.9c-4.6,1.9-7.5,6.2-7.8,10.8c-15.4,2.6-43.5,11.5-74.7,24.1
			c-31.2,12.6-57.6,25.7-70.5,34.5c-3.4-3.2-8.5-4.3-13.1-2.4c-6.4,2.6-9.5,9.8-6.9,16.2c2.6,6.4,9.8,9.5,16.2,6.9
			C1605,386.9,1607.9,382.5,1608.2,377.9z"/>
		<path class="st1" d="M1752.9,369.4c-12.8-9.1-38.9-22.6-69.9-35.8c-31-13.2-58.9-22.5-74.3-25.4c-0.2-4.7-3-9-7.6-11
			c-6.3-2.7-13.6,0.3-16.3,6.6c-2.7,6.3,0.3,13.6,6.6,16.3c4.6,1.9,9.7,0.9,13.1-2.2c12.8,9.1,38.9,22.6,69.9,35.8
			c31,13.2,58.9,22.5,74.3,25.4c0.2,4.7,3,9,7.6,11c6.3,2.7,13.6-0.3,16.3-6.6c2.7-6.3-0.3-13.6-6.6-16.3
			C1761.5,365.2,1756.4,366.3,1752.9,369.4z"/>
		<path class="st1" d="M1653.1,417.8c9.1-12.8,22.6-38.9,35.8-69.9s22.5-58.9,25.4-74.3c4.7-0.2,9-3,11-7.6
			c2.7-6.3-0.3-13.6-6.6-16.3c-6.3-2.7-13.6,0.3-16.3,6.6c-1.9,4.6-0.9,9.7,2.2,13.1c-9.1,12.8-22.6,38.9-35.8,69.9
			c-13.2,31-22.5,58.9-25.4,74.3c-4.7,0.2-9,3-11,7.6c-2.7,6.3,0.3,13.6,6.6,16.3c6.3,2.7,13.6-0.3,16.3-6.6
			C1657.2,426.4,1656.2,421.3,1653.1,417.8z"/>
		
			<ellipse transform="matrix(0.9273 -0.3744 0.3744 0.9273 -6.5671 653.476)" class="st1" cx="1678.8" cy="343.6" rx="59.9" ry="59.9"/>
		<ellipse transform="matrix(0.9273 -0.3744 0.3744 0.9273 -6.5669 653.477)" class="st0" cx="1678.8" cy="343.6" rx="32" ry="32"/>
		<path class="st2" d="M1670.8,325.6c4.8,2,6.3,9.3,3.4,16.1c-2.9,6.9-9.2,10.8-14,8.8c-4.8-2-6.3-9.3-3.4-16.1
			S1666,323.5,1670.8,325.6z"/>
		<path class="st2" d="M1714.1,372.2c2.2,2,1.5,6.2-1.4,9.3c-2.9,3.1-7,3.9-9.2,1.9c-2.2-2-1.5-6.2,1.4-9.3
			C1707.8,371,1711.9,370.1,1714.1,372.2z"/>
		<path class="st2" d="M1703.9,304.2c-1.4,2.6-5.5,3.2-9.3,1.2c-3.8-2-5.7-5.7-4.3-8.3c1.4-2.6,5.5-3.2,9.3-1.2
			C1703.3,297.9,1705.2,301.6,1703.9,304.2z"/>
	</g>
	<path class="st0" d="M1928.9,296.5c-2.8-1.2-5.9-0.6-8,1.3c-2.5-1.8-5.9-3.9-9.9-6.1c1.7-6.2,1.7-12.5,0.2-18.4
		c4.1-2.2,7.5-4.2,10-5.9c2.1,1.9,5.2,2.6,8,1.5c3.9-1.6,5.8-6,4.2-9.9c-1.6-3.9-6-5.8-9.9-4.2c-2.8,1.1-4.6,3.8-4.7,6.6
		c-3,0.5-6.9,1.4-11.3,2.7c-3-5.3-7.4-9.9-12.9-13.1c1.3-4.4,2.3-8.3,2.9-11.3c2.8-0.1,5.5-1.8,6.7-4.6c1.6-3.9-0.2-8.3-4-9.9
		c-3.9-1.6-8.3,0.2-9.9,4c-1.2,2.8-0.6,5.9,1.3,8c-1.8,2.5-3.9,5.9-6.1,9.9c-6.2-1.7-12.5-1.7-18.4-0.2c-2.2-4.1-4.2-7.5-5.9-10
		c1.9-2.1,2.6-5.2,1.5-8c-1.6-3.9-6-5.8-9.9-4.2c-3.9,1.6-5.8,6-4.2,9.9c1.1,2.8,3.8,4.6,6.6,4.7c0.5,3,1.4,6.9,2.7,11.3
		c-5.3,3-9.9,7.4-13.1,12.9c-4.4-1.3-8.3-2.3-11.3-2.9c-0.1-2.8-1.8-5.5-4.6-6.7c-3.9-1.6-8.3,0.2-9.9,4c-1.6,3.9,0.2,8.3,4,9.9
		c2.8,1.2,5.9,0.6,8-1.3c2.5,1.8,5.9,3.9,9.9,6.1c-1.7,6.2-1.7,12.5-0.2,18.4c-4.1,2.2-7.5,4.2-10,5.9c-2.1-1.9-5.2-2.6-8-1.5
		c-3.9,1.6-5.8,6-4.2,9.9c1.6,3.9,6,5.8,9.9,4.2c2.8-1.1,4.6-3.8,4.7-6.6c3-0.5,6.9-1.4,11.3-2.7c3,5.3,7.4,9.9,12.9,13.1
		c-1.3,4.4-2.3,8.3-2.9,11.3c-2.8,0.1-5.5,1.8-6.7,4.6c-1.6,3.9,0.2,8.3,4,9.9s8.3-0.2,9.9-4c1.2-2.8,0.6-5.9-1.3-8
		c1.8-2.5,3.9-5.9,6.1-9.9c6.2,1.7,12.5,1.7,18.4,0.2c2.2,4.1,4.2,7.5,5.9,10c-1.9,2.1-2.6,5.2-1.5,8c1.6,3.9,6,5.8,9.9,4.2
		c3.9-1.6,5.8-6,4.2-9.9c-1.1-2.8-3.8-4.6-6.6-4.7c-0.5-3-1.4-6.9-2.7-11.3c5.3-3,9.9-7.4,13.1-12.9c4.4,1.3,8.3,2.3,11.3,2.9
		c0.1,2.8,1.8,5.5,4.6,6.7c3.9,1.6,8.3-0.2,9.9-4C1934.6,302.5,1932.8,298.1,1928.9,296.5z"/>
	<g>
		<path class="st0" d="M1950.3,642.2c-4.3-25.3-18.8-71.2-39.5-122.4c-20.7-51.2-42.1-94.3-56.6-115.5c5.2-5.6,7-13.9,3.9-21.5
			c-4.2-10.4-16.1-15.5-26.6-11.3c-10.4,4.2-15.5,16.1-11.3,26.6c3.1,7.6,10.1,12.3,17.7,12.7c4.3,25.3,18.8,71.2,39.5,122.4
			c20.7,51.2,42.1,94.3,56.6,115.5c-5.2,5.6-7,13.9-3.9,21.5c4.2,10.4,16.1,15.5,26.6,11.3s15.5-16.1,11.3-26.6
			C1965,647.3,1957.9,642.6,1950.3,642.2z"/>
		<path class="st0" d="M1778.5,582.6c25.3-4.3,71.2-18.8,122.4-39.5c51.2-20.7,94.3-42.1,115.5-56.6c5.6,5.2,13.9,7,21.5,3.9
			c10.4-4.2,15.5-16.1,11.3-26.6c-4.2-10.4-16.1-15.5-26.6-11.3c-7.6,3.1-12.3,10.1-12.7,17.7c-25.3,4.3-71.2,18.8-122.4,39.5
			c-51.2,20.7-94.3,42.1-115.5,56.6c-5.6-5.2-13.9-7-21.5-3.9c-10.4,4.2-15.5,16.1-11.3,26.6c4.2,10.4,16.1,15.5,26.6,11.3
			C1773.3,597.3,1778.1,590.2,1778.5,582.6z"/>
		<path class="st1" d="M2015.6,568.6c-20.9-14.9-63.7-37.1-114.4-58.6c-50.8-21.6-96.5-36.9-121.7-41.6c-0.3-7.6-4.9-14.8-12.4-18
			c-10.4-4.4-22.4,0.4-26.8,10.8c-4.4,10.4,0.4,22.4,10.8,26.8c7.5,3.2,15.8,1.5,21.5-3.6c20.9,14.9,63.7,37.1,114.4,58.6
			c50.8,21.6,96.5,36.9,121.7,41.6c0.3,7.6,4.9,14.8,12.4,18c10.4,4.4,22.4-0.4,26.8-10.8c4.4-10.4-0.4-22.4-10.8-26.8
			C2029.7,561.9,2021.3,563.5,2015.6,568.6z"/>
		<path class="st1" d="M1852,647.9c14.9-20.9,37.1-63.7,58.6-114.4c21.6-50.8,36.9-96.5,41.6-121.7c7.6-0.3,14.8-4.9,18-12.4
			c4.4-10.4-0.4-22.4-10.8-26.8c-10.4-4.4-22.4,0.4-26.8,10.8c-3.2,7.5-1.5,15.8,3.6,21.5c-14.9,20.9-37.1,63.7-58.6,114.4
			c-21.6,50.8-36.9,96.5-41.6,121.7c-7.6,0.3-14.8,4.9-18,12.4c-4.4,10.4,0.4,22.4,10.8,26.8c10.4,4.4,22.4-0.4,26.8-10.8
			C1858.8,662,1857.1,653.7,1852,647.9z"/>
		
			<ellipse transform="matrix(0.7071 -0.7071 0.7071 0.7071 182.5084 1493.5848)" class="st1" cx="1894.2" cy="526.5" rx="98.1" ry="98.1"/>
		<circle class="st0" cx="1894.2" cy="526.5" r="52.4"/>
		<path class="st2" d="M1881.1,496.9c7.9,3.3,10.4,15.2,5.6,26.4c-4.8,11.3-15,17.7-22.9,14.3c-7.9-3.3-10.4-15.2-5.6-26.4
			C1863,500,1873.3,493.5,1881.1,496.9z"/>
		<path class="st2" d="M1952,573.3c3.5,3.3,2.5,10.2-2.3,15.2c-4.8,5.1-11.5,6.4-15.1,3.1c-3.5-3.3-2.5-10.2,2.3-15.2
			C1941.7,571.3,1948.4,569.9,1952,573.3z"/>
		
			<ellipse transform="matrix(0.4631 -0.8863 0.8863 0.4631 628.8213 1950.1821)" class="st2" cx="1924.1" cy="456.1" rx="8.8" ry="12.6"/>
	</g>
	<path class="st3" d="M1850.1,1266.7c-59.4,67.1-138.9,110.7-215.4,156c-13.5,8-26.9,16-40.1,24.3c-37.1,23.2-75.9,52.7-84.6,95.6
		c-13.8,68.8,50,127.5,111,142.7l-968.3-6.8c35.6-31.3,67.6-72.1,69.8-119.5c2.2-46.9-25.4-89.8-60-122.3c-3.7-3.5-7.4-6.8-11.3-10
		c-39.8-33.4-86.6-57.9-124.7-93.2c-78-72.2-109.8-180.7-108-288.6c1.1-66.9,15.1-133.6,39-191.1c23-55.4,60.7-106.1,112.6-136.1
		c61.6-35.7,110.8-92.1,138.7-157.6c30.1-70.8,42.4-149.6,96.6-208c33.2-35.7,78.5-58.6,125.7-70.7c47.2-12.1,96.5-14,145.2-12.8
		c92.9,2.4,224.9,3.3,294.3,74.3c41.8,42.8,54.9,105.1,81.6,158.7c19,38.2,46.8,73.6,83.4,96.3c42.1,26.3,93.6,30.6,140.6,43.1
		c59.1,15.7,116.2,44.1,157.7,89c63.2,68.4,83.5,165.8,90.5,258.7c0.9,12.4,1.6,24.7,1.9,37
		C1928.4,1114.3,1911.4,1197.4,1850.1,1266.7z"/>
	<linearGradient id="SVGID_1_" gradientUnits="userSpaceOnUse" x1="1173.8812" y1="905.558" x2="1169.4886" y2="1364.5559">
		<stop  offset="0" style="stop-color:#20E5B1"/>
		<stop  offset="1" style="stop-color:#D7FFF3"/>
	</linearGradient>
	<path class="st4" d="M1850.1,1266.7c-58.6,66.3-137,109.6-212.6,154.4c-1.8,1.1-3.9,1.7-6.1,1.7l-964,14c-3.1,0-6.1-1.1-8.4-3.2
		c-2.6-2.3-5.1-4.6-7.8-6.8c-39.8-33.4-86.6-57.9-124.7-93.2c-75.3-69.7-107.6-173.3-108.1-277.5c0-6.3,4.8-11.6,11.1-12.3l70.8-7.1
		c6.3-0.6,12.1,3.7,13.3,9.9l23,118.9c1.1,5.8,6.3,10,12.2,10l59.6-0.6c6.9-0.1,12.3-5.7,12.2-12.6l-4.6-207.3
		c-0.2-6.9,5.4-12.6,12.3-12.6h103.3c6.5,0,11.9,5.1,12.3,11.6l13.6,220c0.4,6.5,5.8,11.6,12.3,11.6h19.5c6.9,0,12.5-5.7,12.3-12.6
		l-3.3-125c-0.2-6.8,5.2-12.4,12-12.6l138.5-3.8c6.8-0.2,12.5,5.2,12.6,12l2.4,85.5c0.2,6.8,5.9,12.2,12.7,12l117.2-3.3
		c6.2-0.2,11.3-5,11.9-11.2l12.5-132.6c0.6-6,5.4-10.7,11.3-11.1l68-5.1c7.3-0.5,13.5,5.3,13.2,12.7l-4,128.6
		c-0.2,7.4,6.1,13.4,13.5,12.6l22.2-2.2c6.3-0.6,11.1-5.9,11.1-12.3v-42.4c0-6.8,5.5-12.3,12.3-12.3h68.6c6.8,0,12.3,5.5,12.3,12.3
		v108.6c0,6.8,5.5,12.3,12.3,12.3h31.3c6.8,0,12.4-5.6,12.3-12.4l-1.7-220.5c-0.1-7.1,6-12.8,13.1-12.4l104.8,6.7
		c6.5,0.4,11.5,5.8,11.5,12.3v180.4c0,6.8,5.5,12.3,12.3,12.3h7c6.8,0,12.3-5.5,12.3-12.3v-75.4c0-5.9,4.1-10.9,9.9-12.1l42.3-8.5
		c5.7-1.2,9.9-6.2,9.9-12.1v-42.2c0-6.7,5.3-12.1,12-12.3l117.1-3.2c7.1-0.2,12.9,5.6,12.6,12.7l-5.3,151.5
		c-0.2,6.9,5.2,12.6,12.1,12.7l63.1,0.9c6.8,0.1,12.4-5.3,12.5-12.2l1.5-113.9c0.1-6.9,5.8-12.4,12.8-12.1l52.2,1.9
		c6.6,0.2,11.9,5.7,11.9,12.3C1926.8,1121.7,1908.7,1200.6,1850.1,1266.7z"/>
	<g>
		<g>
			<path class="st1" d="M552.3,1327.2c11.9,5.5,24.4,5.5,35.1,0.8c-2.5-11.4-11.6-21.1-25.2-26.1c-13.6-4.9-28-4.3-38.2,0.3
				C530.8,1312.2,540.4,1321.7,552.3,1327.2z"/>
		</g>
		<g>
			<path class="st1" d="M565,1387.2c9,6.5,20.4,6.8,31.5,1.9c0.9-12.5-3.8-23.7-13.7-29.9c-9.8-6.2-22.3-6.2-33.1-1.4
				C551.1,1369.7,556,1380.7,565,1387.2z"/>
		</g>
		<g>
			<path class="st1" d="M564.4,1451.5c8.1,6.7,19.5,7.1,30.6,2.2c1.5-12.7-1.6-24.4-9.8-31.1c-8.2-6.7-19.6-7-30.7-2.2
				C553.2,1433.1,556.3,1444.8,564.4,1451.5z"/>
		</g>
		<g>
			<path class="st5" d="M565,1515.4c9.4,6.3,21.6,6.4,32.5,1.6c-0.7-12-5.1-23.3-13.8-29.8c-8.7-6.6-20-6.9-31.1-2.1
				C551.4,1497.8,555.6,1509.1,565,1515.4z"/>
		</g>
		<g>
			<path class="st5" d="M581.3,1574.2c12.8,5.2,26.8,4.7,37.1,0.1c-5.6-10.4-14.2-20.3-25.4-26c-11.3-5.7-23.4-5.8-34.3-1
				C560.4,1559,568.5,1569,581.3,1574.2z"/>
		</g>
		<g>
			<path class="st1" d="M623.4,1334.7c-6.7,11.6-17.8,19.3-29,21.7c-2.7-11.4-2-24.3,3.4-35.4c5.4-11.2,15-18.4,26.6-20.9
				C630.5,1310.3,630.1,1323.1,623.4,1334.7z"/>
		</g>
		<g>
			<path class="st1" d="M593.9,1272.6c-5.7,9.9-15.2,16.5-24.7,18.5c-2.3-9.7-1.7-20.7,2.9-30.2c4.6-9.5,12.8-15.7,22.7-17.9
				C599.9,1251.7,599.6,1262.7,593.9,1272.6z"/>
		</g>
		<g>
			<path class="st1" d="M627.9,1397.3c-8.7,12.2-20.3,20.1-31.3,22.5c-0.7-12,3.1-25.9,11.3-38c8.2-12.1,19.2-19.7,30.4-22.2
				C640.2,1371.2,636.5,1385.1,627.9,1397.3z"/>
		</g>
		<g>
			<path class="st1" d="M626.1,1462c-8.5,12.2-19.8,19.9-30.9,22.3c-1.4-11.8,2.6-25.8,11.4-38c8.8-12.3,20.4-20.1,31.5-22.5
				C638.6,1435.9,634.6,1449.9,626.1,1462z"/>
		</g>
		<g>
			<path class="st5" d="M632.4,1524.1c-6.2,11.4-16.2,18.7-27.7,21.3c-4.9-10.6-3.6-23.8,3.7-35.5c7.3-11.8,18.6-19.5,29.7-21.9
				C640.2,1499.5,638.6,1512.7,632.4,1524.1z"/>
		</g>
		<g>
			<path class="st0" d="M652.2,1608.3c-1,0.3-2.7,0-3.8-0.8c-114.4-84.1,1.2-243.4-97.4-332.7c-0.9-0.8-0.9-1.8,0.2-2.1
				c1-0.3,2.6,0.1,3.5,0.9c98.6,89.3-17,248.6,97.4,332.7C653.1,1607,653.2,1607.9,652.2,1608.3z"/>
		</g>
		<g>
			<path class="st1" d="M541.1,1255.2c9.9,5.7,16.5,15.2,18.5,24.7c-9.7,2.3-20.7,1.7-30.2-2.9c-9.5-4.6-15.7-12.8-17.9-22.7
				C520.3,1249.2,531.2,1249.5,541.1,1255.2z"/>
		</g>
	</g>
	<g>
		<g>
			
				<ellipse transform="matrix(0.7452 -0.6669 0.6669 0.7452 -891.4533 789.8101)" class="st0" cx="587.7" cy="1561.3" rx="73.1" ry="154.1"/>
		</g>
		<g>
			<g>
				<path class="st1" d="M512.5,1477.9c14.7,13.2,28.7,27,42.4,41.1l5.1,5.3l5.1,5.4l10.1,10.7c6.7,7.2,13.2,14.5,19.8,21.8
					c6.5,7.4,13,14.7,19.4,22.1l9.5,11.2c1.6,1.9,3.2,3.7,4.8,5.6l4.7,5.7c12.5,15.2,24.7,30.6,36.2,46.7l-0.5,0.4l-78.8-87.6
					l-78.3-88L512.5,1477.9z"/>
			</g>
			<g>
				<path class="st1" d="M611.9,1589.7c-5,1.8-9.9,2.7-14.9,3.3c-5,0.6-9.9,0.9-14.8,0.8c-4.9-0.1-9.9-0.4-14.8-1.1
					c-4.9-0.8-9.9-1.7-14.8-3.6l0-0.5l7.4-0.1l7.4,0l14.8,0.1l14.8,0.2l7.4,0.1l7.4,0.2L611.9,1589.7z"/>
			</g>
			<g>
				<path class="st1" d="M553.6,1524.6c-4,1.6-8,2.3-11.9,2.7c-3.9,0.4-7.8,0.4-11.7,0.1c-3.9-0.3-7.7-0.8-11.6-1.8
					c-3.8-1-7.6-2.2-11.4-4.3l0-0.5l5.8,0.3l5.8,0.4l11.6,0.7l11.6,0.9l5.8,0.5l5.8,0.5L553.6,1524.6z"/>
			</g>
			<g>
				<path class="st1" d="M654.4,1637.2c-4.9,1.9-9.8,2.8-14.6,3.5c-4.9,0.7-9.8,1-14.6,1c-4.9,0-9.8-0.3-14.7-0.9
					c-4.9-0.7-9.8-1.6-14.7-3.4l0-0.5l7.3-0.2l7.3-0.1l14.7-0.1l14.7,0l7.3,0l7.3,0.1L654.4,1637.2z"/>
			</g>
			<g>
				<path class="st1" d="M612.7,1588.4c-1.4-5.1-1.8-10.1-2-15.1c-0.1-5,0-9.9,0.6-14.9c0.5-4.9,1.3-9.8,2.4-14.7
					c1.2-4.8,2.6-9.7,5-14.4l0.5,0.1l-0.6,7.4l-0.7,7.4l-1.4,14.8l-1.6,14.8l-0.8,7.4l-0.9,7.4L612.7,1588.4z"/>
			</g>
			<g>
				<path class="st1" d="M554.4,1523.4c-1.7-4-2.5-7.9-3-11.8c-0.5-3.9-0.6-7.8-0.5-11.7c0.2-3.9,0.6-7.8,1.4-11.6
					c0.8-3.9,2-7.7,4-11.5l0.5,0l-0.1,5.8l-0.2,5.8l-0.4,11.7l-0.6,11.6l-0.3,5.8l-0.4,5.8L554.4,1523.4z"/>
			</g>
			<g>
				<path class="st1" d="M655.2,1635.9c-1.3-5.1-1.7-10-1.8-15c-0.1-4.9,0.2-9.8,0.7-14.7c0.6-4.9,1.4-9.7,2.6-14.4
					c1.3-4.8,2.7-9.5,5.1-14.2l0.5,0.1l-0.7,7.3l-0.8,7.3l-1.6,14.6l-1.8,14.5l-0.9,7.3l-1,7.3L655.2,1635.9z"/>
			</g>
		</g>
	</g>
	<g>
		<g>
			<path class="st6" d="M858,1515.2c-31.2-5.5-61.4,69.1-54.4,28.9c7-40.3,60.6-82.5,32.3-108.7c-28.3-26.1-43.7,40-65.7,14.2
				c-22.1-25.8,21-83.9,15.3-126.2c-5.7-42.3-41.5,42-49.6-3.3c-5.3-29.5-24.7-46.3-37.7-54.5c-6.9-4.3-16-2.4-20.5,4.4
				c-8.4,12.8-19.2,36.2-11.8,65.2c11.4,44.6-56.1-17.3-43.7,23.6c12.3,40.8,75.6,75.9,66.2,108.5c-9.4,32.6-50.8-21.3-65.7,14.2
				s51.3,51.8,74.4,85.6c23,33.8-35.4-21.6-61.5-3.7c-26.1,17.9,63.5,141.5,143.4,124.2C858.8,1670.3,889.2,1520.7,858,1515.2z"/>
		</g>
		<g>
			<g>
				<path class="st0" d="M698.3,1314.3c9.1,30.6,17.1,61.4,24.6,92.3l2.9,11.6l2.7,11.6l5.5,23.2l10.4,46.6
					c3.3,15.6,6.6,31.1,9.8,46.7l4.7,23.4l2.3,11.7l2.2,11.7c5.9,31.3,11.4,62.6,15.8,94.3l-0.7,0.1l-40.8-186.5l-40.1-186.7
					L698.3,1314.3z"/>
			</g>
			<g>
				<path class="st0" d="M749.1,1551.3c-7.9-2.3-15.4-5.4-22.7-8.8c-7.3-3.4-14.4-7.1-21.3-11.2c-6.9-4-13.7-8.3-20.3-13
					c-6.6-4.6-13-9.6-18.9-15.3l0.3-0.5l10.5,5.9l10.4,6l20.8,12l20.7,12.2l10.4,6.1l10.3,6.2L749.1,1551.3z"/>
			</g>
			<g>
				<path class="st0" d="M719.1,1412.9c-6.4-1.8-12.2-4.4-17.8-7.3c-5.7-2.8-11.1-6.1-16.3-9.6c-5.2-3.5-10.3-7.2-15.1-11.4
					c-4.9-4.1-9.5-8.4-13.7-13.6l0.3-0.5l7.9,5.1l7.9,5.2l15.8,10.4l15.7,10.5l7.8,5.3l7.8,5.3L719.1,1412.9z"/>
			</g>
			<g>
				<path class="st0" d="M771,1652.3c-7.9-2.1-15.3-5.1-22.5-8.4c-7.3-3.2-14.3-6.8-21.2-10.7c-6.9-3.9-13.6-8-20.2-12.6
					c-6.6-4.5-12.9-9.3-18.9-14.9l0.3-0.5l10.4,5.7l10.4,5.8l20.7,11.6l20.6,11.7l10.3,5.9l10.3,5.9L771,1652.3z"/>
			</g>
			<g>
				<path class="st0" d="M751.3,1550.4c3-7.7,6.8-14.8,10.8-21.8c4-7,8.4-13.7,13.1-20.2c4.7-6.5,9.5-12.9,14.8-19
					c5.2-6.1,10.7-12.1,17-17.4l0.5,0.3l-6.8,9.9l-6.9,9.8l-13.8,19.7l-14,19.6l-7,9.8l-7.1,9.7L751.3,1550.4z"/>
			</g>
			<g>
				<path class="st0" d="M721.3,1412.1c1.6-6.4,4.1-12.3,6.8-18c2.7-5.8,5.8-11.2,9.1-16.6c3.3-5.3,6.9-10.5,10.9-15.5
					c3.9-5,8.2-9.8,13.2-14.1l0.5,0.3l-4.9,8.1l-5,8l-9.9,16.1l-10.1,16l-5,8l-5.1,7.9L721.3,1412.1z"/>
			</g>
			<g>
				<path class="st0" d="M773.2,1651.4c3-7.6,6.9-14.6,11-21.4c4.1-6.8,8.5-13.4,13.2-19.8c4.7-6.4,9.6-12.6,14.9-18.5
					c5.2-6,10.8-11.7,17-17l0.5,0.3l-6.9,9.7l-7,9.6l-13.9,19.2l-14.1,19.1l-7,9.6l-7.1,9.5L773.2,1651.4z"/>
			</g>
		</g>
	</g>
	<g>
		<g>
			<path class="st6" d="M1536.5,1302.6c9.3,9.3,20.9,13.6,32.7,12.9c1.7-11.6-3.5-23.9-14.6-33.2c-11-9.4-24.8-13.8-35.9-13
				C1521.5,1281,1527.2,1293.3,1536.5,1302.6z"/>
		</g>
		<g>
			<path class="st6" d="M1527.5,1363.2c6.2,9.2,16.8,13.5,28.8,12.8c5.2-11.5,4.7-23.5-2.4-32.7c-7.1-9.2-18.8-13.5-30.5-12.8
				C1520.6,1341.9,1521.3,1354,1527.5,1363.2z"/>
		</g>
		<g>
			<path class="st6" d="M1504.6,1423.3c5.3,9.1,15.8,13.4,27.9,12.7c5.8-11.4,7-23.4,1.6-32.6c-5.4-9.1-16-13.4-28-12.7
				C1500.4,1402.1,1499.3,1414.1,1504.6,1423.3z"/>
		</g>
		<g>
			<path class="st6" d="M1482.9,1483.4c6.6,9.2,18,13.5,29.9,12.8c3.5-11.5,3.3-23.6-2.5-32.7c-5.9-9.2-16.4-13.4-28.5-12.8
				C1476.3,1462.2,1476.3,1474.2,1482.9,1483.4z"/>
		</g>
		<g>
			<path class="st5" d="M1477.8,1544.2c10.2,9.3,23.5,13.7,34.8,13c-1.7-11.7-6.2-24-14.8-33.2c-8.6-9.3-20-13.6-31.8-12.9
				C1463.4,1522.6,1467.6,1534.9,1477.8,1544.2z"/>
		</g>
		<g>
			<path class="st6" d="M1600.5,1334.3c-10.3,8.5-23.4,11.9-34.7,10.3c1.4-11.6,6.5-23.5,15.5-32c9-8.6,20.4-12,32.2-10.4
				C1615.6,1313.9,1610.8,1325.7,1600.5,1334.3z"/>
		</g>
		<g>
			<path class="st6" d="M1594.4,1265.7c-8.8,7.3-20,10.1-29.6,8.8c1.2-9.9,5.6-20,13.2-27.3c7.6-7.3,17.4-10.2,27.5-8.9
				C1607.3,1248.3,1603.2,1258.5,1594.4,1265.7z"/>
		</g>
		<g>
			<path class="st6" d="M1582.9,1394.6c-12.4,8.4-26,11.8-37.2,10.2c3.5-11.5,11.9-23.3,23.8-31.7c11.9-8.5,24.9-11.8,36.2-10.2
				C1603.6,1374.4,1595.3,1386.1,1582.9,1394.6z"/>
		</g>
		<g>
			<path class="st6" d="M1558.7,1454.6c-12.2,8.4-25.4,11.8-36.7,10.2c2.8-11.5,11.4-23.3,23.9-31.7c12.5-8.4,26.2-11.8,37.3-10.2
				C1579.6,1434.4,1570.9,1446.1,1558.7,1454.6z"/>
		</g>
		<g>
			<path class="st6" d="M1543.1,1515c-9.8,8.5-21.7,12-33.3,10.3c-0.9-11.7,4.9-23.5,15.8-32c11-8.5,24.2-11.9,35.5-10.2
				C1559,1494.6,1552.9,1506.4,1543.1,1515z"/>
		</g>
		<g>
			<path class="st0" d="M1532.4,1600.8c-1.1,0-2.6-1-3.3-2.1c-78-118.7,85.7-227.8,24.3-345.8c-0.6-1.1-0.2-2,0.9-1.9
				c1.1,0,2.4,1,3,2.1c61.4,118-102.3,227.2-24.3,345.8C1533.7,1600,1533.4,1600.8,1532.4,1600.8z"/>
		</g>
		<g>
			<path class="st6" d="M1550.9,1231.1c7.3,8.8,10.1,20,8.8,29.6c-9.9-1.2-20-5.6-27.3-13.2c-7.3-7.6-10.2-17.4-8.9-27.5
				C1533.5,1218.3,1543.7,1222.4,1550.9,1231.1z"/>
		</g>
	</g>
	<g>
		<g>
			<path class="st0" d="M1559.5,1558.6c-21.4-3.7-42.2,47.4-37.4,19.8c4.8-27.6,41.6-56.6,22.1-74.6c-19.5-17.9-30,27.5-45.1,9.8
				c-15.2-17.7,14.4-57.6,10.5-86.6s-28.5,28.8-34-2.3c-3.6-20.2-17-31.8-25.9-37.4c-4.7-3-11-1.6-14.1,3
				c-5.8,8.8-13.2,24.8-8.1,44.7c7.8,30.6-38.5-11.8-30,16.2c8.5,28,51.9,52.1,45.4,74.5c-6.5,22.4-34.8-14.6-45.1,9.8
				c-10.3,24.4,35.2,35.5,51,58.7c15.8,23.2-24.3-14.8-42.2-2.6c-17.9,12.3,43.6,97.1,98.4,85.2
				C1560.1,1665.1,1580.9,1562.4,1559.5,1558.6z"/>
		</g>
		<g>
			<g>
				<path class="st1" d="M1449.9,1420.8c6.2,21,11.7,42.2,16.9,63.4l2,8l1.9,8l3.7,15.9l7.1,32c2.2,10.7,4.5,21.4,6.7,32.1l3.2,16.1
					l1.6,8l1.5,8.1c4.1,21.5,7.8,43,10.9,64.7l-0.5,0.1l-28-128l-27.5-128.1L1449.9,1420.8z"/>
			</g>
			<g>
				<path class="st1" d="M1484.8,1583.4c-5.4-1.6-10.6-3.7-15.6-6.1c-5-2.3-9.9-4.9-14.6-7.7c-4.7-2.8-9.4-5.7-13.9-8.9
					c-4.5-3.2-8.9-6.6-13-10.5l0.2-0.3l7.2,4.1l7.2,4.1l14.3,8.2l14.2,8.3l7.1,4.2l7.1,4.2L1484.8,1583.4z"/>
			</g>
			<g>
				<path class="st1" d="M1464.2,1488.5c-4.4-1.2-8.4-3-12.2-5c-3.9-2-7.6-4.2-11.2-6.6c-3.6-2.4-7.1-5-10.4-7.8
					c-3.3-2.8-6.5-5.8-9.4-9.3l0.2-0.3l5.5,3.5l5.4,3.6l10.8,7.1l10.8,7.2l5.4,3.6l5.3,3.7L1464.2,1488.5z"/>
			</g>
			<g>
				<path class="st1" d="M1499.8,1652.8c-5.4-1.5-10.5-3.5-15.5-5.7c-5-2.2-9.8-4.7-14.6-7.4c-4.7-2.7-9.4-5.5-13.8-8.6
					c-4.5-3.1-8.9-6.4-12.9-10.2l0.2-0.3l7.1,3.9l7.1,4l14.2,7.9l14.2,8.1l7.1,4l7.1,4.1L1499.8,1652.8z"/>
			</g>
			<g>
				<path class="st1" d="M1486.3,1582.8c2.1-5.3,4.7-10.2,7.4-15c2.8-4.8,5.8-9.4,9-13.9c3.2-4.5,6.5-8.9,10.2-13
					c3.6-4.2,7.4-8.3,11.7-12l0.3,0.2l-4.7,6.8l-4.7,6.7l-9.5,13.5l-9.6,13.4l-4.8,6.7l-4.9,6.7L1486.3,1582.8z"/>
			</g>
			<g>
				<path class="st1" d="M1465.7,1487.9c1.1-4.4,2.8-8.4,4.7-12.4c1.8-3.9,4-7.7,6.2-11.4c2.3-3.7,4.8-7.2,7.5-10.6
					c2.7-3.4,5.6-6.7,9.1-9.6l0.3,0.2l-3.4,5.6l-3.4,5.5l-6.8,11l-6.9,11l-3.5,5.5l-3.5,5.5L1465.7,1487.9z"/>
			</g>
			<g>
				<path class="st1" d="M1501.3,1652.1c2.1-5.2,4.7-10,7.5-14.7c2.8-4.7,5.8-9.2,9-13.6c3.2-4.4,6.6-8.6,10.2-12.7
					c3.6-4.1,7.4-8.1,11.7-11.6l0.3,0.2l-4.7,6.6l-4.8,6.6l-9.6,13.2l-9.7,13.1l-4.8,6.6l-4.9,6.5L1501.3,1652.1z"/>
			</g>
		</g>
	</g>
	<g>
		<g>
			
				<ellipse transform="matrix(0.5019 -0.8649 0.8649 0.5019 -444.2807 2172.4875)" class="st1" cx="1664.1" cy="1472" rx="251.1" ry="119.2"/>
		</g>
		<g>
			<g>
				<path class="st0" d="M1755.4,1313.4c-12.9,29.5-27.4,58.1-42.3,86.4l-5.6,10.6l-5.7,10.5l-11.5,21.1
					c-7.8,14-15.8,27.8-23.7,41.7c-8.2,13.8-16.2,27.6-24.5,41.3l-12.6,20.4c-2.1,3.4-4.2,6.8-6.3,10.2l-6.5,10.1
					c-17.2,27-34.8,53.8-54,79.6l-0.9-0.5l95.9-166.3l96.8-165.8L1755.4,1313.4z"/>
			</g>
			<g>
				<path class="st0" d="M1632.4,1523.8c-5.3-6.8-9.2-14-12.7-21.4c-3.4-7.4-6.3-14.9-8.7-22.6c-2.4-7.7-4.4-15.5-5.8-23.5
					c-1.3-8-2.3-16.2-1.9-24.8l0.8-0.3l3.8,11.5l3.7,11.5l7.4,23l7.1,23.1l3.6,11.6l3.4,11.6L1632.4,1523.8z"/>
			</g>
			<g>
				<path class="st0" d="M1703.8,1400.7c-4.5-5.4-7.5-11.2-10.1-17.1c-2.6-5.9-4.6-11.9-6.1-18.1c-1.5-6.1-2.6-12.4-3.1-18.8
					c-0.4-6.4-0.5-12.9,0.9-19.8l0.8-0.2l2.5,9.2l2.4,9.2l4.8,18.4l4.5,18.5l2.2,9.2l2.1,9.3L1703.8,1400.7z"/>
			</g>
			<g>
				<path class="st0" d="M1580.2,1613.7c-5.4-6.6-9.3-13.7-12.9-20.9c-3.5-7.2-6.5-14.6-9-22.2c-2.5-7.6-4.5-15.3-6-23.2
					c-1.4-7.9-2.5-15.9-2.1-24.5l0.8-0.3l3.9,11.3l3.8,11.3l7.6,22.6l7.4,22.7l3.7,11.4l3.5,11.4L1580.2,1613.7z"/>
			</g>
			<g>
				<path class="st0" d="M1634.7,1524.4c7.2-4.7,14.8-7.9,22.4-10.7c7.6-2.7,15.4-4.9,23.3-6.6c7.9-1.7,15.9-2.9,24-3.6
					c8.1-0.6,16.3-0.8,24.8,0.4l0.2,0.8l-11.8,2.8l-11.8,2.6l-23.6,5.3l-23.7,5l-11.8,2.5l-11.9,2.4L1634.7,1524.4z"/>
			</g>
			<g>
				<path class="st0" d="M1706.1,1401.3c5.3-4.6,11-7.8,16.8-10.6c5.8-2.7,11.8-4.9,17.9-6.6c6.1-1.7,12.3-2.9,18.7-3.6
					c6.4-0.6,12.9-0.9,19.8,0.3l0.2,0.8l-9.1,2.8l-9.1,2.6l-18.3,5.3l-18.3,5l-9.2,2.5l-9.2,2.4L1706.1,1401.3z"/>
			</g>
			<g>
				<path class="st0" d="M1582.5,1614.3c7.2-4.6,14.7-7.6,22.3-10.3c7.6-2.6,15.3-4.7,23.1-6.3c7.8-1.6,15.7-2.7,23.7-3.2
					c8-0.5,16.1-0.6,24.5,0.8l0.2,0.8l-11.7,2.6l-11.7,2.4l-23.4,4.9l-23.4,4.6l-11.7,2.3l-11.7,2.2L1582.5,1614.3z"/>
			</g>
		</g>
	</g>
	<path class="st7" d="M1729.9,1700.9H542.1c-7.2,0-13-5.8-13-13l0,0c0-7.2,5.8-13,13-13h1187.7c7.2,0,13,5.8,13,13l0,0
		C1742.9,1695.1,1737,1700.9,1729.9,1700.9z"/>
	<path class="st2" d="M1408.3,865.1h368.7c3.7,0,4.6-5.2,1.1-6.4l-53.3-18.3c-2.1-0.7-2.9-3.3-1.6-5c9.2-12.8,37.7-56.3,11.5-75.1
		c-19.1-13.7-34.4-5.3-43.2,3c-2.3,2.1-5.9,0.2-5.5-2.9c2.2-15.4,1.3-39.3-25.1-41.3c-29.5-2.3-30.7,39.8-29.4,61.1
		c0.2,3.1-3.7,4.7-5.8,2.4c-5.9-6.6-15.2-13.4-26.2-9c-16.8,6.7-15.6,33.9-9.2,45.5c1.1,2,0,4.4-2.3,4.8l-48.5,8.2
		c-2.7,0.5-4.8-2.4-3.4-4.8c7.6-13.9,24-48.1,9.9-62.1c-18.1-17.9-33.4-8.2-41.6,0.3c-2,2.1-5.6,0.8-5.7-2.1
		c-0.3-10.3-3.9-23.7-22.2-17.7c-22.2,7.3-14.1,40.4-10.5,52c0.6,2-0.7,4-2.8,4.3c-9.9,1.2-33.3,7.3-17.4,38.2
		c0.9,1.7,0.1,3.9-1.7,4.6l-36.9,14.2C1403.7,860,1404.6,865.1,1408.3,865.1z"/>
	<path class="st2" d="M1355.1,518l-38.4-13.2c-1.5-0.5-2.1-2.3-1.2-3.6c6.6-9.2,27.2-40.6,8.3-54.2c-13.8-9.9-24.8-3.8-31.2,2.2
		c-1.6,1.5-4.3,0.1-3.9-2.1c1.6-11.1,1-28.3-18.1-29.8c-21.2-1.7-22.1,28.7-21.2,44c0.1,2.2-2.6,3.4-4.1,1.7
		c-4.3-4.8-11-9.7-18.9-6.5c-12.1,4.8-18.9,32.3-2.8,47.1c1.2,1.1-50,15.3-50,15.3c-1.7,1-1,3.7,1,3.7h179.8
		C1357,522.7,1357.6,518.9,1355.1,518z"/>
	<g>
		<g>
			<path class="st0" d="M1349.6,673.6c-1.9,0-3.9-0.9-5.1-2.6c-2.1-2.8-1.5-6.8,1.3-8.9l194.4-144.2l43.4-8.2
				c3.5-0.7,6.8,1.6,7.4,5.1c0.7,3.5-1.6,6.8-5.1,7.4l-40.5,7.6l-192,142.4C1352.2,673.2,1350.9,673.6,1349.6,673.6z"/>
		</g>
		<g>
			<path class="st2" d="M1056.5,1610.8h-42.2c0,0,10.2-264.9,0-296.8c0,0-35.5,198.3-100.8,296.8h-41.2c0,0,38.2-316.3,19.1-397
				c-19.1-80.7-36-202.9,9.1-282.6c45.1-79.7-26.1-131.7-10.2-206.1c15.9-74.4,51-89.2,39.3-136c-11.7-46.7,0.3-117.2,73-118.7
				c0,0,25.3-3.3,49.5,7.4c14.8,6.5,29.3,18.3,37.2,39.3c20.9,55.2-12.1,100.5-35.7,109.8c0,0,59.5,134.6,24.1,319.1
				C1077.7,946.1,1155.7,1269.4,1056.5,1610.8z"/>
		</g>
		<g>
			<path class="st6" d="M1012.8,601.1l4.2,25.9h-54.8c-3.8-26.7-4.8-48-3.6-65c0.3-4.8,0.8-9.3,1.5-13.4c6.7-40.6,28.9-49.8,52-49.8
				c12.4,0,23.2,4.3,31.9,11.4v0c2.6,2.1,5,4.5,7.1,7.1h0c4,4.7,7.3,10.1,9.9,16v0c0.3,0.7,0.6,1.4,0.9,2.2c0,0,0,0,0,0
				c3.7,9,5.5,19,5.4,29.3C1066.9,599.1,1012.8,601.1,1012.8,601.1z"/>
		</g>
		<g>
			<path class="st2" d="M1056.4,1610.8c0,0,58.2,3.6,85.3,46.4c4.8,7.7-0.6,17.7-9.7,17.7h-119.5l1.7-64.1H1056.4z"/>
		</g>
		<g>
			<path class="st2" d="M913.5,1610.8c0,0,59,3.6,86.2,46.4c4.9,7.7-0.6,17.7-9.7,17.7H870.6l1.7-64.1H913.5z"/>
		</g>
		<g>
			<path class="st0" d="M846.2,711.8c15.3-15.7,33.3-28.4,52.7-39.3c9.8-5.2,20.2-9.8,31-13.5c10.9-3.7,22.4-6.1,34.4-7.2l9.1-0.4
				c3.1,0.1,6.2,0.1,9.3,0.3c6.2,0.5,12.4,1.6,18.6,3.3c12.3,3.3,24.3,9.2,34.6,17.1l3.8,3l1.9,1.6c0.6,0.5,1.5,1.6,2.2,2.3
				c1.5,1.7,3.1,3.4,4.3,5.2c1.1,1.8,2.2,3.6,3.3,5.5c3.7,7.3,5.7,14.7,6.5,21.5c1.7,13.8,0.2,26.2-2.3,38.1
				c-2.7,11.9-6.6,23.1-11.4,33.8c-5,10.7-10.7,20.9-17.4,30.4c-6.6,9.6-14.3,18.4-22.4,26.8c-8,8.5-17.4,15.6-27.1,22.1l-7.4,4.6
				c-2.5,1.5-5.2,2.8-7.7,4.2c-2.5,1.4-5.2,2.6-7.9,3.8c-2.7,1.2-5.4,2.3-8.1,3.3c-11,3.9-22.4,6.4-33.9,7.6
				c-23,1.8-45.8-2.2-65.6-11.3l-0.2-0.1c-0.5-0.2-0.8-0.9-0.5-1.4c0.2-0.5,0.7-0.7,1.2-0.6c20.6,5.1,42.2,6.1,62.9,2.1
				c10.3-2.1,20.4-5.3,30.1-9.6c9.5-4.5,18.8-9.7,27.1-16.1c16.9-12.6,31.3-28.6,42.8-46.3c11.5-17.7,20.3-37.3,24.8-57.9
				c2.3-10.2,3.4-20.8,2.3-31.1c-0.5-5.1-1.9-10.1-4.1-14.7c-2.1-4.6-5.9-7.9-9.9-11.3c-8-6.6-17.4-11.7-27.3-14.7
				c-10-3.1-20.5-4.3-31-4.1c-21.1,0.6-41.8,6.4-61.4,14.4c-19.6,8-38.5,18.2-55.9,30.3c-0.5,0.3-1.1,0.2-1.5-0.3
				C845.7,712.9,845.7,712.3,846.2,711.8L846.2,711.8z"/>
		</g>
		<g>
			<path class="st0" d="M835.6,936.7c4.8,14.8,12.5,28.7,21.6,41.3c9.2,12.6,20.1,24,32.5,33.6c24.6,19.4,54.7,30.9,85.5,35.8
				c15.4,2.4,31.1,3.5,46.8,3c15.7-0.5,31.3-1.6,46.2-6c14.9-4.5,28.8-11.8,40.7-21.7c12-9.8,22.1-21.9,30.7-34.8
				c17.1-26.1,29.1-55.4,40.7-84.6c11.6-29.2,22.7-58.8,36.2-87.3c6.7-14.3,14.2-28.2,22.4-41.8l6.4-10l3.2-5l3.5-4.8
				c2.4-3.2,4.6-6.4,7-9.5l7.6-9.1c20.4-24.2,45.7-44.1,73.7-58.8c0.5-0.3,1.2-0.1,1.4,0.4c0.2,0.5,0.1,1.1-0.3,1.4l-0.1,0.1
				c-25.8,18.2-48.6,39.3-66.2,64.2c-18.1,24.5-31.6,51.8-43.6,80c-11.5,28.5-22,57.6-32.7,87.5c-5.4,14.9-11.4,29.8-18.1,44.7
				c-6.8,14.9-14.1,29.8-23.5,44.2c-9.6,14.2-21.2,27.8-35.3,39.2c-14.1,11.3-30.7,20-48.2,24.8l-13.1,2.8
				c-4.4,0.9-8.8,1.1-13.1,1.6l-6.5,0.6l-6.2,0.2c-4.2,0.1-8.3,0.3-12.4,0.2c-16.6,0.1-33.4-1.7-49.8-5.1
				c-16.4-3.4-32.7-8.4-47.9-15.7c-15.2-7.3-29.4-16.6-41.9-27.7c-6.2-5.6-11.9-11.7-17.2-18c-5.3-6.3-10.1-13-14.2-20.1
				c-8.3-14.1-14.7-29.2-17.8-45l0,0c-0.1-0.6,0.3-1.1,0.8-1.2C834.9,935.8,835.4,936.2,835.6,936.7z"/>
		</g>
		<g>
			<path class="st8" d="M1322.2,654.4c0,0,34.5-29.9,47.8-27.4c8.5,1.6,17.6,14.9,23.1,24.3c3.3,5.7,2.6,12.8-1.8,17.6
				c-12.1,13.3-38.9,38.4-69.1,38.6C1281.1,707.8,1322.2,654.4,1322.2,654.4z"/>
		</g>
		<g>
			<path class="st6" d="M1275.3,697.1c0,0,23-56,58.6-51.7c0,0,16.5,5.3-10.1,25.7c-26.6,20.5,21.8,24.8,31.3,9.1
				c9.6-15.7,19.3-35.1,34.1-35.1c14.9,0,3.6,48.6-18.2,70.4c-21.8,21.8-79.5,12-79.5,12L1275.3,697.1z"/>
		</g>
		<g>
			<path class="st2" d="M962.2,721.9c0,0,8.5-50.3,50.5-40.4c51.2,12.1,70.6,151.6,113.1,138.1c42.5-13.5,149.5-122.5,149.5-122.5
				l16.3,30.5c0,0-74.4,195.5-209.7,165C946.7,862.1,962.2,721.9,962.2,721.9z"/>
		</g>
		<g>
			<path class="st8" d="M868.9,639.1h-26.2c-7.3,0-13.2,5.9-13.2,13.2L787,923.7c0,7.3,5.9,13.2,13.2,13.2h68.7
				c7.3,0,13.2-5.9,13.2-13.2V652.3C882.1,645,876.2,639.1,868.9,639.1z"/>
		</g>
		<g class="st9">
			<path class="st10" d="M965.3,772.7c0,0,8.3,95.9,120.2,120.6l-7.8,52.8C1077.7,946.1,948.6,887.1,965.3,772.7z"/>
		</g>
		<g class="st11">
			<path class="st10" d="M1057.6,729.7l30.3,60.6C1087.8,790.4,1085.3,738.2,1057.6,729.7z"/>
		</g>
		<g class="st9">
			<path class="st10" d="M1014.3,1610.8c0,0,10.2-264.9,0-296.8c0,0,18.5-76.2,23.9-148c0.5-6.4,9.5-7.1,10.9-0.8
				C1063,1229.1,1080.9,1381,1014.3,1610.8z"/>
		</g>
		<g>
			<path class="st8" d="M1040.8,511.2c-12.1,3.9-55.2,19.1-75.7,42c-2,2.2-5.7,0.4-5.3-2.6c6.3-42.3,28.8-51.8,52.3-51.8
				c11.1,0,20.9,3.4,29.1,9.3C1042.5,508.9,1042.2,510.8,1040.8,511.2z"/>
		</g>
		<g>
			<path class="st3" d="M1058.9,536.2c-13.7,3.1-66.7,18.1-46.2,64.9c0,0,54.1-2,54.7-36.3c0.2-9.2-1.3-18.1-4.3-26.4
				C1062.6,536.7,1060.7,535.8,1058.9,536.2z"/>
		</g>
		<g>
			<polygon class="st3" points="1020.7,554.2 969.8,544.4 963.2,548.7 1021,558.4 1011.3,594.6 963.6,565.3 961.7,568.6 
				1012.8,601.1 1039.6,578.7 			"/>
		</g>
		<g>
			<path class="st6" d="M973.4,556.6c0,0-0.6-22.6-15.7-11.7c-15.1,10.9-1.8,32.3,7.9,25.8C975.3,564.3,973.4,556.6,973.4,556.6z"/>
		</g>
		<path class="st12" d="M1024.7,498.8c0,0-60.8,10.9-35.4,128.2L942,639.1l-7-84.9l28.8-55.4l69.7-19.9L1024.7,498.8z"/>
		<path class="st3" d="M1611.9,496.8l6.1-19.6c1.8-5.8-0.1-12.2-5-15.9c-11.8-9.1-30.1-29.5-11.7-60.2c18.2-30.3,55.8-17.6,76.1-7.7
			c7.3,3.6,16.1,0.7,19.6-6.6c8.8-17.9,27.4-45.3,56.8-38.5c17.2,4,24.3,12.2,26.5,20.5c2.5,9.1,12.7,13.7,21,9.2
			c23.5-12.5,58.2-23.9,79.3,1.6c26.3,31.8,13,81.2-28.9,94.6c-10.4,3.3-13.9,16.6-6.1,24.2c12.2,12,18.7,28.2,2.1,47.4
			c-31.8,37-132.9-31.2-160.9-51.2c-4.5-3.2-10.4-3.6-15.3-1.1l-39,20.4C1621.1,520.2,1608,509.3,1611.9,496.8z"/>
		<path class="st13" d="M1012.8,601.1c0,0-18.3-2.2-28.5-6.9c0,0,12.6,24.4,32.8,32.9L1012.8,601.1z"/>
	</g>
</g>
</svg>
